<?xml version="1.0" encoding="UTF-8"?>
<svg id="Layer_1" xmlns="http://www.w3.org/2000/svg" version="1.1" xmlns:cc="http://creativecommons.org/ns#" xmlns:dc="http://purl.org/dc/elements/1.1/" xmlns:inkscape="http://www.inkscape.org/namespaces/inkscape" xmlns:rdf="http://www.w3.org/1999/02/22-rdf-syntax-ns#" xmlns:sodipodi="http://sodipodi.sourceforge.net/DTD/sodipodi-0.dtd" xmlns:svg="http://www.w3.org/2000/svg" viewBox="0 0 24 24">
  <!-- Generator: Adobe Illustrator 30.7.0, SVG Export Plug-In . SVG Version: 2.1.4 Build 114)  -->
  <defs>
    <style>
      .st0 {
        fill: none;
        stroke: gray;
        stroke-miterlimit: 10;
        stroke-width: .25px;
      }

      .st1 {
        opacity: .5;
      }
    </style>
  </defs>
  <g class="st1">
    <path id="path25187" class="st0" d="M2,6.23v11.55c0,.97.79,1.76,1.76,1.76h16.47c.97,0,1.76-.79,1.76-1.76V6.23c0-.97-.79-1.76-1.76-1.76H3.76c-.97,0-1.76.79-1.76,1.76ZM5.87,7.29h12.25c.47,0,.85.38.85.85v7.71c0,.47-.38.85-.85.85H5.87c-.47,0-.85-.38-.85-.85v-7.71c0-.47.38-.85.85-.85ZM9.76,9.65v4.86c0,.43.47.7.83.48l4.22-2.43c.37-.22.37-.75,0-.97l-4.22-2.42c-.37-.22-.83.06-.83.48Z"/>
  </g>
</svg>